<svg width="213" height="143" viewBox="0 0 213 143" fill="none" xmlns="http://www.w3.org/2000/svg">
<path d="M106 13C148.492 13 182 39.8753 182 72C182 104.125 148.492 131 106 131C63.5077 131 30 104.125 30 72C30 39.8753 63.5077 13 106 13Z" fill="#23445F"/>
<path d="M63.6495 95.4998C61.9502 95.4998 60.4706 95.2411 59.2105 94.7239C57.9694 94.2067 56.8335 93.3925 55.8025 92.2815L59.0387 89.0057C59.745 89.7528 60.4992 90.3275 61.3011 90.7298C62.103 91.113 63.0098 91.3045 64.0218 91.3045C64.8809 91.3045 65.5396 91.1608 65.9979 90.8735C66.4751 90.567 66.7138 90.1551 66.7138 89.6379C66.7138 89.159 66.542 88.7662 66.1983 88.4598C65.8547 88.134 65.3964 87.8563 64.8237 87.6264C64.2699 87.3775 63.6495 87.1476 62.9622 86.9368C62.2938 86.7069 61.6161 86.4387 60.9288 86.1322C60.2605 85.8065 59.6401 85.4139 59.0673 84.9541C58.5135 84.4944 58.0649 83.9197 57.7213 83.23C57.3776 82.5404 57.2058 81.688 57.2058 80.6726C57.2058 79.3699 57.5112 78.2589 58.1222 77.3394C58.7523 76.4199 59.6211 75.7112 60.7283 75.2131C61.8356 74.7149 63.1244 74.466 64.5946 74.466C66.0648 74.466 67.4202 74.7149 68.6612 75.2131C69.9023 75.7112 70.9237 76.4008 71.7256 77.282L68.4608 80.529C67.8497 79.9159 67.2293 79.4561 66.5993 79.1497C65.9692 78.8433 65.2819 78.69 64.5373 78.69C63.8309 78.69 63.2772 78.8145 62.8762 79.0635C62.4753 79.3125 62.2748 79.6669 62.2748 80.1267C62.2748 80.5864 62.4467 80.96 62.7903 81.2473C63.134 81.5347 63.5826 81.7933 64.1363 82.0232C64.7091 82.234 65.3295 82.4542 65.9979 82.6841C66.6852 82.914 67.3629 83.1822 68.0312 83.4886C68.6995 83.7951 69.3103 84.1879 69.8641 84.6668C70.4368 85.1456 70.8951 85.749 71.2387 86.4771C71.5824 87.2051 71.7542 88.0862 71.7542 89.1207C71.7542 91.1512 71.0383 92.7221 69.6063 93.8331C68.1934 94.9441 66.2079 95.4998 63.6495 95.4998ZM83.0499 95.4998C81.3316 95.4998 79.8138 95.1453 78.4964 94.4366C77.198 93.7085 76.1863 92.7028 75.4607 91.4194C74.7351 90.136 74.3724 88.68 74.3724 87.0518V74.8108H79.4701V87.4253C79.4701 88.1533 79.6229 88.7855 79.9283 89.3218C80.253 89.839 80.6825 90.2413 81.2171 90.5287C81.7708 90.7969 82.3816 90.9309 83.0499 90.9309C83.7373 90.9309 84.3387 90.7969 84.8542 90.5287C85.3697 90.2413 85.7802 89.839 86.0856 89.3218C86.391 88.8046 86.5438 88.1821 86.5438 87.454V74.8108H91.6988V87.0805C91.6988 88.7087 91.3361 90.1647 90.6105 91.4482C89.8849 92.7125 88.8732 93.7085 87.5748 94.4366C86.2957 95.1453 84.7873 95.4998 83.0499 95.4998ZM100.843 87.8851L93.0817 74.8108H98.9527L104.881 85.4139H100.757L106.685 74.8108H112.441L104.623 87.8851H100.843ZM100.241 95.1837V85.7874H105.368V95.1837H100.241ZM122.939 95.5572C121.374 95.5572 119.932 95.289 118.615 94.7526C117.297 94.2163 116.142 93.4692 115.149 92.5113C114.176 91.5534 113.412 90.4328 112.858 89.1494C112.305 87.8467 112.028 86.4483 112.028 84.9541C112.028 83.4599 112.295 82.0807 112.83 80.8163C113.383 79.5329 114.147 78.4123 115.121 77.4544C116.094 76.4965 117.24 75.759 118.557 75.2418C119.875 74.7055 121.316 74.4372 122.882 74.4372C124.447 74.4372 125.889 74.7055 127.206 75.2418C128.524 75.759 129.669 76.4965 130.643 77.4544C131.617 78.4123 132.371 79.5329 132.905 80.8163C133.459 82.0997 133.736 83.4887 133.736 84.9829C133.736 86.4771 133.459 87.866 132.905 89.1494C132.371 90.4328 131.617 91.5631 130.643 92.5401C129.669 93.498 128.524 94.2451 127.206 94.7814C125.908 95.2986 124.486 95.5572 122.939 95.5572ZM122.882 90.9597C124.027 90.9597 125.02 90.7107 125.86 90.2126C126.7 89.7144 127.349 89.0154 127.808 88.1149C128.266 87.2145 128.495 86.161 128.495 84.9541C128.495 84.073 128.361 83.2684 128.094 82.5404C127.846 81.8124 127.474 81.1899 126.977 80.6726C126.481 80.1363 125.889 79.7244 125.202 79.4371C124.514 79.1497 123.741 79.006 122.882 79.006C121.736 79.006 120.744 79.255 119.903 79.7531C119.063 80.232 118.414 80.9216 117.956 81.822C117.498 82.7225 117.269 83.7663 117.269 84.9541C117.269 85.8736 117.393 86.7069 117.641 87.454C117.908 88.1821 118.29 88.8142 118.786 89.3505C119.283 89.8678 119.875 90.27 120.562 90.5574C121.249 90.8256 122.023 90.9597 122.882 90.9597ZM146.43 95.4998C144.884 95.4998 143.452 95.2411 142.135 94.7239C140.836 94.1876 139.691 93.4405 138.698 92.4826C137.724 91.5247 136.961 90.4137 136.407 89.1494C135.872 87.866 135.605 86.4771 135.605 84.9829C135.605 83.4696 135.882 82.0807 136.436 80.8163C137.008 79.5329 137.801 78.4217 138.813 77.4831C139.824 76.5252 140.999 75.7878 142.335 75.2705C143.691 74.7342 145.132 74.466 146.66 74.466C148.473 74.466 150.115 74.7917 151.585 75.4429C153.056 76.0751 154.249 76.9562 155.165 78.0865L151.729 81.5347C151.041 80.711 150.287 80.098 149.466 79.6957C148.645 79.2743 147.691 79.0635 146.602 79.0635C145.495 79.0635 144.502 79.3125 143.624 79.8106C142.765 80.2894 142.077 80.9697 141.562 81.8508C141.046 82.7319 140.789 83.7663 140.789 84.9541C140.789 86.1419 141.027 87.1858 141.505 88.0862C142.001 88.9866 142.669 89.6857 143.509 90.1838C144.368 90.682 145.352 90.9309 146.459 90.9309C147.566 90.9309 148.502 90.7201 149.266 90.2988C150.049 89.8774 150.64 89.2643 151.041 88.4598C151.461 87.6552 151.671 86.6973 151.671 85.5863L155.137 87.8276L145.886 87.5977V83.4024H156.826V84.1783C156.826 86.6111 156.387 88.6705 155.509 90.3562C154.631 92.0419 153.409 93.3256 151.843 94.2067C150.297 95.0687 148.492 95.4998 146.43 95.4998Z" fill="#FDFDFD"/>
<path d="M70.0995 107.409C69.5712 107.409 69.0805 107.316 68.6277 107.131C68.1748 106.938 67.7768 106.673 67.4338 106.335C67.0975 105.991 66.8369 105.592 66.6516 105.138C66.4733 104.683 66.384 104.194 66.384 103.671C66.384 103.148 66.4733 102.659 66.6516 102.205C66.8369 101.75 67.0975 101.355 67.4338 101.017C67.7768 100.68 68.1715 100.415 68.6174 100.222C69.0702 100.029 69.5643 99.933 70.0995 99.933C70.6758 99.933 71.1835 100.029 71.6227 100.222C72.0619 100.408 72.4494 100.666 72.7857 100.997L71.8388 101.947C71.6399 101.726 71.3962 101.554 71.1081 101.43C70.8199 101.306 70.4836 101.244 70.0995 101.244C69.7632 101.244 69.4544 101.303 69.1732 101.42C68.8986 101.53 68.6586 101.695 68.4527 101.916C68.2469 102.129 68.0892 102.387 67.9793 102.69C67.8694 102.986 67.8146 103.313 67.8146 103.671C67.8146 104.036 67.8694 104.366 67.9793 104.663C68.0892 104.959 68.2469 105.217 68.4527 105.437C68.6586 105.651 68.8986 105.816 69.1732 105.933C69.4544 106.05 69.7632 106.108 70.0995 106.108C70.5042 106.108 70.8508 106.046 71.1389 105.922C71.4341 105.798 71.6811 105.623 71.88 105.396L72.8268 106.346C72.4906 106.683 72.0995 106.945 71.6535 107.131C71.2076 107.316 70.6895 107.409 70.0995 107.409ZM75.6041 107.409C75.1513 107.409 74.7432 107.296 74.3794 107.069C74.0158 106.841 73.731 106.532 73.5251 106.139C73.3193 105.747 73.2164 105.306 73.2164 104.817C73.2164 104.322 73.3193 103.878 73.5251 103.485C73.731 103.093 74.0158 102.783 74.3794 102.556C74.7432 102.329 75.1513 102.215 75.6041 102.215C75.961 102.215 76.28 102.287 76.5613 102.432C76.8427 102.577 77.0656 102.78 77.2303 103.041C77.4019 103.296 77.4945 103.585 77.5081 103.909V105.706C77.4945 106.036 77.4019 106.328 77.2303 106.583C77.0656 106.838 76.8427 107.041 76.5613 107.193C76.28 107.337 75.961 107.409 75.6041 107.409ZM75.8511 106.16C76.2286 106.16 76.534 106.036 76.7671 105.788C77.0005 105.533 77.117 105.206 77.117 104.807C77.117 104.546 77.0622 104.315 76.9524 104.115C76.8495 103.909 76.702 103.75 76.5098 103.64C76.3246 103.523 76.1051 103.465 75.8511 103.465C75.6041 103.465 75.3846 103.523 75.1924 103.64C75.0072 103.75 74.8597 103.909 74.7499 104.115C74.647 104.315 74.5955 104.546 74.5955 104.807C74.5955 105.076 74.647 105.313 74.7499 105.52C74.8597 105.719 75.0072 105.878 75.1924 105.995C75.3846 106.105 75.6041 106.16 75.8511 106.16ZM77.045 107.306V105.964L77.2611 104.745L77.045 103.547V102.318H78.383V107.306H77.045ZM80.3064 107.306V100.243H81.6547V107.306H80.3064ZM79.1435 103.506V102.318H82.8177V103.506H79.1435ZM85.8328 107.409C85.3113 107.409 84.8481 107.299 84.4434 107.079C84.0386 106.852 83.716 106.542 83.4759 106.15C83.2426 105.757 83.126 105.31 83.126 104.807C83.126 104.311 83.2392 103.871 83.4657 103.485C83.699 103.093 84.0145 102.783 84.4125 102.556C84.8105 102.322 85.2531 102.205 85.7402 102.205C86.2206 102.205 86.6425 102.315 87.0061 102.535C87.3766 102.749 87.6648 103.045 87.8706 103.423C88.0834 103.795 88.1897 104.218 88.1897 104.694C88.1897 104.783 88.1828 104.876 88.1691 104.972C88.1622 105.062 88.1452 105.165 88.1176 105.282L83.9391 105.292V104.28L87.4898 104.27L86.9444 104.694C86.9307 104.397 86.8757 104.15 86.7797 103.95C86.6904 103.75 86.5566 103.599 86.3783 103.496C86.2067 103.385 85.9941 103.33 85.7402 103.33C85.4726 103.33 85.2392 103.392 85.0403 103.516C84.8414 103.633 84.687 103.802 84.5772 104.022C84.4743 104.236 84.4228 104.49 84.4228 104.786C84.4228 105.089 84.4776 105.354 84.5875 105.582C84.7041 105.802 84.8687 105.974 85.0815 106.098C85.2943 106.215 85.5413 106.273 85.8225 106.273C86.0765 106.273 86.3062 106.232 86.5121 106.15C86.7179 106.06 86.8962 105.929 87.0473 105.757L87.8398 106.552C87.5997 106.834 87.3046 107.048 86.9546 107.193C86.6117 107.337 86.2376 107.409 85.8328 107.409ZM89.0236 107.306V102.318H90.3718V107.306H89.0236ZM90.3718 104.549L89.8469 104.198C89.9087 103.585 90.087 103.103 90.3821 102.752C90.677 102.394 91.1026 102.215 91.6583 102.215C91.8984 102.215 92.1145 102.256 92.3067 102.339C92.4987 102.415 92.6736 102.542 92.8316 102.721L91.9877 103.692C91.912 103.609 91.8194 103.547 91.7098 103.506C91.6069 103.465 91.4867 103.444 91.3496 103.444C91.0614 103.444 90.8247 103.537 90.6394 103.723C90.4609 103.902 90.3718 104.177 90.3718 104.549ZM93.305 107.306V102.318H94.6636V107.306H93.305ZM93.9843 101.513C93.7648 101.513 93.5829 101.441 93.4388 101.296C93.2947 101.145 93.2227 100.959 93.2227 100.738C93.2227 100.525 93.2947 100.343 93.4388 100.191C93.5829 100.04 93.7648 99.964 93.9843 99.964C94.2107 99.964 94.3926 100.04 94.5298 100.191C94.6739 100.343 94.7459 100.525 94.7459 100.738C94.7459 100.959 94.6739 101.145 94.5298 101.296C94.3926 101.441 94.2107 101.513 93.9843 101.513ZM99.203 107.306V104.446C99.203 104.15 99.1104 103.909 98.9252 103.723C98.7399 103.537 98.4996 103.444 98.2047 103.444C98.0125 103.444 97.8409 103.485 97.6901 103.568C97.5391 103.651 97.4189 103.767 97.3299 103.919C97.2476 104.071 97.2064 104.246 97.2064 104.446L96.6815 104.177C96.6815 103.785 96.7638 103.444 96.9285 103.155C97.0999 102.859 97.3332 102.628 97.6284 102.463C97.9302 102.298 98.2698 102.215 98.6473 102.215C99.0108 102.215 99.3368 102.308 99.625 102.494C99.9132 102.673 100.14 102.91 100.304 103.206C100.469 103.496 100.551 103.809 100.551 104.146V107.306H99.203ZM95.8581 107.306V102.318H97.2064V107.306H95.8581ZM103.716 109.516C103.188 109.516 102.721 109.42 102.317 109.227C101.912 109.041 101.589 108.776 101.349 108.432L102.203 107.575C102.395 107.802 102.608 107.974 102.841 108.091C103.082 108.215 103.37 108.277 103.706 108.277C104.124 108.277 104.454 108.17 104.694 107.957C104.941 107.743 105.065 107.447 105.065 107.069V105.819L105.291 104.724L105.075 103.63V102.318H106.413V107.048C106.413 107.544 106.296 107.974 106.063 108.339C105.836 108.711 105.521 109 105.116 109.206C104.711 109.413 104.245 109.516 103.716 109.516ZM103.655 107.172C103.208 107.172 102.807 107.065 102.45 106.852C102.094 106.632 101.812 106.332 101.606 105.953C101.407 105.575 101.308 105.151 101.308 104.683C101.308 104.215 101.407 103.795 101.606 103.423C101.812 103.052 102.094 102.759 102.45 102.546C102.807 102.325 103.208 102.215 103.655 102.215C104.025 102.215 104.351 102.287 104.632 102.432C104.92 102.577 105.147 102.776 105.312 103.031C105.476 103.279 105.565 103.571 105.579 103.909V105.478C105.565 105.809 105.473 106.105 105.301 106.366C105.137 106.621 104.91 106.821 104.622 106.965C104.341 107.103 104.018 107.172 103.655 107.172ZM103.922 105.943C104.169 105.943 104.382 105.891 104.56 105.788C104.746 105.678 104.89 105.53 104.993 105.344C105.095 105.151 105.147 104.934 105.147 104.694C105.147 104.446 105.095 104.229 104.993 104.043C104.89 103.857 104.746 103.712 104.56 103.609C104.382 103.499 104.169 103.444 103.922 103.444C103.675 103.444 103.459 103.499 103.274 103.609C103.088 103.712 102.944 103.86 102.841 104.053C102.739 104.239 102.687 104.453 102.687 104.694C102.687 104.928 102.739 105.141 102.841 105.334C102.944 105.52 103.088 105.668 103.274 105.778C103.459 105.888 103.675 105.943 103.922 105.943ZM111.851 107.409C111.268 107.409 110.767 107.309 110.349 107.11C109.937 106.91 109.563 106.611 109.227 106.212L110.153 105.282C110.366 105.564 110.613 105.785 110.894 105.943C111.175 106.095 111.518 106.17 111.923 106.17C112.287 106.17 112.575 106.098 112.788 105.953C113.007 105.809 113.117 105.609 113.117 105.354C113.117 105.134 113.055 104.955 112.932 104.817C112.808 104.68 112.644 104.563 112.438 104.466C112.239 104.37 112.016 104.284 111.769 104.208C111.529 104.126 111.285 104.033 111.038 103.929C110.798 103.826 110.575 103.699 110.369 103.547C110.17 103.389 110.009 103.189 109.885 102.948C109.762 102.7 109.7 102.391 109.7 102.019C109.7 101.578 109.806 101.203 110.019 100.893C110.232 100.584 110.524 100.346 110.894 100.181C111.265 100.016 111.683 99.933 112.15 99.933C112.644 99.933 113.09 100.026 113.488 100.212C113.885 100.398 114.211 100.639 114.465 100.935L113.539 101.864C113.326 101.63 113.107 101.458 112.88 101.348C112.661 101.237 112.41 101.182 112.129 101.182C111.807 101.182 111.553 101.244 111.368 101.368C111.182 101.492 111.09 101.671 111.09 101.905C111.09 102.105 111.151 102.267 111.275 102.391C111.398 102.515 111.559 102.621 111.759 102.711C111.964 102.8 112.187 102.886 112.428 102.969C112.675 103.052 112.918 103.145 113.158 103.248C113.405 103.351 113.628 103.485 113.827 103.651C114.033 103.816 114.198 104.029 114.321 104.291C114.445 104.546 114.507 104.862 114.507 105.241C114.507 105.915 114.27 106.446 113.796 106.831C113.323 107.217 112.675 107.409 111.851 107.409ZM117.804 107.409C117.283 107.409 116.82 107.299 116.415 107.079C116.01 106.852 115.688 106.542 115.447 106.15C115.214 105.757 115.097 105.31 115.097 104.807C115.097 104.311 115.211 103.871 115.437 103.485C115.67 103.093 115.986 102.783 116.384 102.556C116.782 102.322 117.225 102.205 117.712 102.205C118.192 102.205 118.614 102.315 118.978 102.535C119.348 102.749 119.636 103.045 119.842 103.423C120.055 103.795 120.161 104.218 120.161 104.694C120.161 104.783 120.154 104.876 120.141 104.972C120.134 105.062 120.117 105.165 120.089 105.282L115.911 105.292V104.28L119.461 104.27L118.916 104.694C118.902 104.397 118.847 104.15 118.751 103.95C118.662 103.75 118.528 103.599 118.35 103.496C118.178 103.385 117.966 103.33 117.712 103.33C117.444 103.33 117.211 103.392 117.012 103.516C116.813 103.633 116.659 103.802 116.549 104.022C116.446 104.236 116.394 104.49 116.394 104.786C116.394 105.089 116.449 105.354 116.559 105.582C116.676 105.802 116.84 105.974 117.053 106.098C117.266 106.215 117.513 106.273 117.794 106.273C118.048 106.273 118.278 106.232 118.484 106.15C118.689 106.06 118.868 105.929 119.019 105.757L119.811 106.552C119.571 106.834 119.276 107.048 118.926 107.193C118.583 107.337 118.209 107.409 117.804 107.409ZM120.995 107.306V102.318H122.343V107.306H120.995ZM122.343 104.549L121.818 104.198C121.88 103.585 122.059 103.103 122.354 102.752C122.649 102.394 123.074 102.215 123.63 102.215C123.87 102.215 124.086 102.256 124.278 102.339C124.47 102.415 124.645 102.542 124.803 102.721L123.959 103.692C123.884 103.609 123.791 103.547 123.681 103.506C123.578 103.465 123.458 103.444 123.321 103.444C123.033 103.444 122.796 103.537 122.611 103.723C122.433 103.902 122.343 104.177 122.343 104.549ZM126.842 107.306L124.65 102.318H126.132L127.707 106.428H126.976L128.561 102.318H129.992L127.81 107.306H126.842ZM130.614 107.306V102.318H131.972V107.306H130.614ZM131.293 101.513C131.073 101.513 130.891 101.441 130.747 101.296C130.603 101.145 130.531 100.959 130.531 100.738C130.531 100.525 130.603 100.343 130.747 100.191C130.891 100.04 131.073 99.964 131.293 99.964C131.519 99.964 131.701 100.04 131.838 100.191C131.982 100.343 132.054 100.525 132.054 100.738C132.054 100.959 131.982 101.145 131.838 101.296C131.701 101.441 131.519 101.513 131.293 101.513ZM135.513 107.409C135.005 107.409 134.549 107.296 134.144 107.069C133.739 106.841 133.42 106.532 133.187 106.139C132.954 105.747 132.837 105.306 132.837 104.817C132.837 104.322 132.954 103.878 133.187 103.485C133.42 103.093 133.739 102.783 134.144 102.556C134.556 102.322 135.012 102.205 135.513 102.205C135.904 102.205 136.265 102.277 136.594 102.422C136.923 102.566 137.208 102.773 137.448 103.041L136.584 103.919C136.453 103.774 136.295 103.664 136.11 103.589C135.932 103.513 135.733 103.475 135.513 103.475C135.266 103.475 135.043 103.534 134.844 103.651C134.652 103.761 134.498 103.916 134.381 104.115C134.271 104.308 134.216 104.539 134.216 104.807C134.216 105.069 134.271 105.303 134.381 105.509C134.498 105.709 134.652 105.867 134.844 105.984C135.043 106.095 135.266 106.15 135.513 106.15C135.74 106.15 135.942 106.112 136.12 106.036C136.306 105.953 136.464 105.836 136.594 105.685L137.469 106.563C137.215 106.838 136.923 107.048 136.594 107.193C136.265 107.337 135.904 107.409 135.513 107.409ZM140.499 107.409C139.978 107.409 139.514 107.299 139.11 107.079C138.705 106.852 138.382 106.542 138.142 106.15C137.909 105.757 137.792 105.31 137.792 104.807C137.792 104.311 137.905 103.871 138.132 103.485C138.365 103.093 138.681 102.783 139.079 102.556C139.477 102.322 139.919 102.205 140.406 102.205C140.887 102.205 141.309 102.315 141.672 102.535C142.043 102.749 142.331 103.045 142.537 103.423C142.75 103.795 142.856 104.218 142.856 104.694C142.856 104.783 142.849 104.876 142.835 104.972C142.828 105.062 142.811 105.165 142.784 105.282L138.605 105.292V104.28L142.156 104.27L141.611 104.694C141.597 104.397 141.542 104.15 141.446 103.95C141.357 103.75 141.223 103.599 141.045 103.496C140.873 103.385 140.66 103.33 140.406 103.33C140.139 103.33 139.906 103.392 139.707 103.516C139.508 103.633 139.353 103.802 139.243 104.022C139.141 104.236 139.089 104.49 139.089 104.786C139.089 105.089 139.144 105.354 139.254 105.582C139.37 105.802 139.535 105.974 139.748 106.098C139.961 106.215 140.208 106.273 140.489 106.273C140.743 106.273 140.973 106.232 141.178 106.15C141.384 106.06 141.563 105.929 141.714 105.757L142.506 106.552C142.266 106.834 141.971 107.048 141.621 107.193C141.278 107.337 140.904 107.409 140.499 107.409ZM145.398 107.42C145.117 107.42 144.839 107.382 144.565 107.306C144.297 107.23 144.05 107.127 143.824 106.996C143.597 106.859 143.402 106.693 143.237 106.501L144.04 105.685C144.211 105.878 144.41 106.022 144.637 106.119C144.863 106.215 145.113 106.263 145.388 106.263C145.608 106.263 145.772 106.232 145.882 106.17C145.999 106.108 146.057 106.015 146.057 105.891C146.057 105.754 145.995 105.647 145.872 105.571C145.755 105.496 145.601 105.434 145.409 105.385C145.216 105.33 145.014 105.272 144.801 105.21C144.596 105.141 144.396 105.055 144.204 104.952C144.012 104.841 143.855 104.694 143.731 104.508C143.614 104.315 143.556 104.067 143.556 103.764C143.556 103.447 143.631 103.172 143.782 102.938C143.94 102.704 144.163 102.522 144.451 102.391C144.74 102.26 145.079 102.194 145.47 102.194C145.882 102.194 146.253 102.267 146.582 102.411C146.918 102.556 147.196 102.773 147.416 103.062L146.602 103.878C146.451 103.692 146.28 103.558 146.088 103.475C145.903 103.392 145.7 103.351 145.481 103.351C145.282 103.351 145.127 103.382 145.018 103.444C144.915 103.506 144.863 103.592 144.863 103.702C144.863 103.826 144.921 103.922 145.038 103.991C145.162 104.06 145.319 104.122 145.512 104.177C145.703 104.225 145.903 104.284 146.108 104.353C146.321 104.415 146.52 104.504 146.705 104.621C146.897 104.738 147.052 104.893 147.169 105.086C147.292 105.279 147.354 105.527 147.354 105.829C147.354 106.318 147.179 106.707 146.829 106.996C146.479 107.279 146.002 107.42 145.398 107.42Z" fill="#F9FAF6"/>
<path d="M76.5332 65.7755H136.008C136.008 66.8915 135.106 67.7959 133.994 67.7959H78.5469C77.4346 67.7959 76.5332 66.8915 76.5332 65.7755Z" fill="#FDFDFE"/>
<path d="M79.8258 63.1804H133.287L141.18 64.9918H71.5967L79.8258 63.1804Z" fill="#FDFDFE"/>
<path d="M134.384 62.0984C134.384 55.7646 131.431 49.6904 126.176 45.2116C120.92 40.733 113.792 38.2169 106.36 38.2169C98.9281 38.2169 91.8002 40.733 86.5448 45.2116C81.2894 49.6904 78.3369 55.7646 78.3369 62.0984H106.36H134.384Z" fill="#C4C4C4"/>
<path d="M99.0326 40.9492C97.1127 41.917 95.3263 43.0924 93.7223 44.4593C88.6927 48.7455 85.8673 54.5587 85.8673 60.6201H129.37V60.6203H81.4692C81.4692 55.2072 83.9928 50.0159 88.4844 46.1881C91.4359 43.6727 95.0789 41.8817 99.0326 40.9492Z" fill="#22445E"/>
<path d="M105.941 34.5714C106.634 34.5714 107.294 34.7483 107.802 35.07C108.301 35.3861 108.737 35.9074 108.737 36.5918C108.737 37.2763 108.301 37.7976 107.802 38.1137C107.294 38.4353 106.634 38.6122 105.941 38.6122C105.247 38.6122 104.587 38.4353 104.079 38.1137C103.58 37.7976 103.144 37.2763 103.144 36.5918C103.144 35.9074 103.58 35.3861 104.079 35.07C104.587 34.7483 105.247 34.5714 105.941 34.5714Z" fill="#23445F" stroke="#C4C4C4" stroke-width="6"/>
<path d="M98.9373 23.8282C98.4894 22.0888 99.952 19.7601 99.952 19.7601C99.952 19.7601 99.4132 21.0601 100.04 23.4949C100.667 25.9297 103.959 25.1231 104.096 27.6131C104.233 30.1032 102.354 32.481 102.354 32.481C102.354 32.481 103.332 30.7928 103.212 28.6222C103.075 26.1322 99.5645 26.2631 98.9373 23.8282Z" fill="#D9D9D9"/>
<path d="M108.668 23.9706C108.068 22.5918 110.195 19.9504 110.195 19.9504C110.195 19.9504 108.825 22.0407 109.666 23.9706C110.508 25.9003 112.103 25.9914 112.103 28.0677C112.103 30.144 110.195 31.7963 110.195 31.7963C110.195 31.7963 111.495 29.8313 111.105 28.0677C110.657 26.0449 109.51 25.9003 108.668 23.9706Z" fill="#D9D9D9"/>
<path d="M103.735 22.0107C103.083 20.1213 105.116 17.6233 105.116 17.6233C105.116 17.6233 104.204 19.3661 105.116 22.0107C106.028 24.6553 107.295 24.3632 107.611 26.6635C107.928 28.9639 105.615 32.245 105.615 32.245C105.615 32.245 106.973 30.1178 106.645 27.731C106.268 24.9933 104.647 24.6553 103.735 22.0107Z" fill="#D9D9D9"/>
</svg>
